HIERARCHY
ROOT Hips
{
	OFFSET	0.00	0.00	0.00
	CHANNELS 6 Xposition Yposition Zposition Zrotation Xrotation Yrotation
	JOINT Spine
	{
		OFFSET	 0.00	0.01	 0.00
		CHANNELS 3 Zrotation Xrotation Yrotation
		JOINT Spine1
		{
			OFFSET	 0.00	 2.45913012437421	 0.00
			CHANNELS 3 Zrotation Xrotation Yrotation
            JOINT Neck
            {
                OFFSET	 0.00	 2.48462964506057	 0.00
                CHANNELS 3 Zrotation Xrotation Yrotation
                JOINT Head
                {
                    OFFSET	 0.00	 0.927524780924562	 0.00
                    CHANNELS 3 Zrotation Xrotation Yrotation
                    End Site 
                    {
                        OFFSET	 0.00	 1.14999962169752	 0.00
                    }
                }
            }
			JOINT LeftShoulder
			{
				OFFSET	 0.00	 2.48462964506057	 0.00
				CHANNELS 3 Zrotation Xrotation Yrotation
				JOINT LeftUpArm
				{
					OFFSET	 0.00	 1.24881979654096	 0.00
					CHANNELS 3 Zrotation Xrotation Yrotation
					JOINT LeftForeArm
					{
						OFFSET	 0.00	2.59758046908119	 0.00
						CHANNELS 3 Zrotation Xrotation Yrotation
						JOINT LeftHand
						{
							OFFSET	 0.00	2.45542024364365	 0.00
							CHANNELS 3 Zrotation Xrotation Yrotation
							JOINT LeftHandThumb 
							{
								OFFSET	 0.00	0.00	 0.00
								CHANNELS 3 Zrotation Xrotation Yrotation
								End Site
								{
									OFFSET	 0.00	0.00	1.00000003353624
								}
							}
							JOINT L_Wrist_End 
							{
								OFFSET	 0.00	0.99999967115358	 0.00
								CHANNELS 3 Zrotation Xrotation Yrotation
								End Site 
								{
									OFFSET	 0.00	 0.00	 0.00
								}
							}
						}
					}
				}
			}
			JOINT RightShoulder
			{
				OFFSET	 0.00	 2.48462964506057	 0.00
				CHANNELS 3 Zrotation Xrotation Yrotation
				JOINT RightUpArm
				{
					OFFSET	 0.00	 1.24881979654096	 0.00
					CHANNELS 3 Zrotation Xrotation Yrotation
					JOINT RightForeArm
					{
						OFFSET	 0.00	2.59758046908119	 0.00
						CHANNELS 3 Zrotation Xrotation Yrotation
						JOINT RightHand
						{
							OFFSET	 0.00	2.45542024364365	 0.00
							CHANNELS 3 Zrotation Xrotation Yrotation
							JOINT RightHandThumb 
							{
								OFFSET	 0.00	0.00	 0.00
								CHANNELS 3 Zrotation Xrotation Yrotation
								End Site
								{
									OFFSET	 0.00	0.00	1.00000003353624
								}
							}
							JOINT R_Wrist_End 
							{
								OFFSET	 0.00	0.99999967115358	 0.00
								CHANNELS 3 Zrotation Xrotation Yrotation
								End Site 
								{
									OFFSET	 0.00	 0.00	 0.00
								}
							}
						}
					}
				}
			}
		}
	}
	JOINT LeftUpLeg
	{
		OFFSET	 1.2719394002717	 0.00	 0.00
		CHANNELS 3 Zrotation Xrotation Yrotation
		JOINT LeftLowLeg
		{
			OFFSET	 0.00	-4.3429100912261	 0.00
			CHANNELS 3 Zrotation Xrotation Yrotation
			JOINT LeftFoot
			{
				OFFSET	 0.00	-4.48767017425826	 0.00
				CHANNELS 3 Zrotation Xrotation Yrotation
				JOINT LeftToeBase
                {
                    OFFSET	 0.00	0.00	 1.51507020887566
                    CHANNELS 3 Zrotation Xrotation Yrotation
                    End Site 
                    {
                        OFFSET	 0.00	0.00	 0.75000010571191
                    }
                }
			}
		}
	}
	JOINT RightUpLeg
	{
		OFFSET	 -1.2719393604653	 0.00	 0.00
		CHANNELS 3 Zrotation Xrotation Yrotation
		JOINT RightLowLeg
		{
			OFFSET	 0.00	-4.3429100912261	 0.00
			CHANNELS 3 Zrotation Xrotation Yrotation
			JOINT RightFoot
			{
				OFFSET	 0.00	-4.48767017425826	 0.00
				CHANNELS 3 Zrotation Xrotation Yrotation
				JOINT RightToeBase
                {
                    OFFSET	 0.00	0.00	 1.51507020887566
                    CHANNELS 3 Zrotation Xrotation Yrotation
                    End Site 
                    {
                        OFFSET	 0.00	0.00	 0.749999965609858
                    }
                }   
			}
		}
	}
}
MOTION 
Frames:	13 
Frame Time: 0.02 
 -2.946199951171875 1.4973599243164062 9.402349853515625 -142.363 70.5674 170.053 6.6707 -30.5068 -1.32888 -2.80502 10.4171 0.566829 16.7862 36.5642 -11.8359 -59.9871 -70.1543 -51.9012 -117.0139 -3.59833 6.70898 -44.5174 -6.99954 -163.469 0.0 -100.837 0.0 39.1894 1.02485 139.421 0.0 0.0 0.0 0.0 0.0 0.0 116.4841 -5.71521 -1.08524 46.8727 -13.4327 164.576 0.0 -107.532 0.0 -31.6193 14.4224 -156.395 0.0 0.0 0.0 0.0 0.0 0.0 0.433199 -15.5014 -27.532 0.0 4.68341 0.0 -0.675764 -1.7667999 20.7444 0.0 -11.09443 0.0 7.87103 -13.8547 29.7136 0.0 3.804 0.0 4.66703 2.5650997 -31.4089 0.0 -18.10434 0.0 
  -2.9464300537109374 1.4993800354003906 9.402109985351563 -142.387 70.5747 170.033 6.72132 -30.5372 -1.26705 -2.96051 10.4666 0.567179 17.0417 36.5194 -12.0136 -59.804 -70.2511 -51.5518 -116.9556 -3.52626 6.69777 -44.6794 -7.24395 -164.798 0.0 -101.063 0.0 43.2801 1.06856 136.672 0.0 0.0 0.0 0.0 0.0 0.0 116.5512 -5.70913 -1.06977 46.8046 -13.4486 164.606 0.0 -107.505 0.0 -31.7857 14.2751 -155.743 0.0 0.0 0.0 0.0 0.0 0.0 0.431785 -15.5027 -27.4791 0.0 4.68565 0.0 -0.690337 -1.7749996 20.7213 0.0 -11.10014 0.0 7.87151 -13.867 29.7207 0.0 3.81691 0.0 4.667 2.5639 -31.378 0.0 -18.08754 0.0 
  -2.9468701171875 1.5018600463867187 9.402249755859375 -142.408 70.5839 170.015 6.74871 -30.5488 -1.23466 -3.00021 10.4756 0.568342 17.0211 36.5724 -11.966 -59.8392 -70.2593 -51.6015 -116.9321 -3.50324 6.74339 -44.6809 -7.20949 -164.767 0.0 -101.054 0.0 43.2893 1.14928 136.458 0.0 0.0 0.0 0.0 0.0 0.0 116.5462 -5.7132 -1.0693 46.7566 -13.4508 164.626 0.0 -107.474 0.0 -31.9317 14.1648 -155.772 0.0 0.0 0.0 0.0 0.0 0.0 0.431244 -15.4968 -27.5307 0.0 4.67634 0.0 -0.58308 -1.6954994 20.8412 0.0 -11.20938 0.0 7.8693 -13.8807 29.7191 0.0 3.82612 0.0 4.67259 2.5798998 -31.3382 0.0 -18.1153 0.0 
  -2.94760009765625 1.5041999816894531 9.402529907226562 -142.425 70.5962 169.986 6.77026 -30.5608 -1.21054 -3.02946 10.4972 0.569328 17.02 36.5976 -11.9547 -59.8925 -70.2663 -51.628 -116.917404 -3.50127 6.74441 -44.652 -7.17648 -164.683 0.0 -101.026 0.0 43.2241 1.20213 136.802 0.0 0.0 0.0 0.0 0.0 0.0 116.5487 -5.70047 -1.07293 46.7184 -13.4624 164.679 0.0 -107.461 0.0 -32.0408 14.1085 -155.729 0.0 0.0 0.0 0.0 0.0 0.0 0.440102 -15.4849 -27.4852 0.0 4.65569 0.0 -0.604809 -1.6849995 20.828 0.0 -11.21249 0.0 7.8713 -13.8905 29.7347 0.0 3.83402 0.0 4.68146 2.6022997 -31.3085 0.0 -18.11097 0.0 
  -2.948320007324219 1.5058099365234374 9.40260009765625 -142.417 70.6041 169.957 6.78157 -30.5627 -1.20425 -3.05174 10.4893 0.557976 17.002 36.6507 -11.9066 -59.9177 -70.2756 -51.6413 -116.9111 -3.5086 6.7439 -44.6245 -7.19153 -164.662 0.0 -101.052 0.0 43.2341 1.25649 136.761 0.0 0.0 0.0 0.0 0.0 0.0 116.5529 -5.68693 -1.08895 46.685 -13.4685 164.711 0.0 -107.464 0.0 -32.1093 14.1163 -155.545 0.0 0.0 0.0 0.0 0.0 0.0 0.450612 -15.4809 -27.4337 0.0 4.64379 0.0 -0.724419 -1.7569008 20.7538 0.0 -11.07846 0.0 7.87811 -13.8933 29.7706 0.0 3.83438 0.0 4.69199 2.6068 -31.3233 0.0 -18.11812 0.0 
  -2.9492498779296876 1.5082000732421874 9.402760009765625 -142.414 70.6221 169.928 6.79572 -30.5811 -1.1963 -3.07441 10.5349 0.552308 16.9661 36.6397 -11.8798 -59.9178 -70.2653 -51.6288 -116.9254 -3.50497 6.73142 -44.5957 -7.15527 -164.631 0.0 -101.018 0.0 43.2704 1.17768 136.701 0.0 0.0 0.0 0.0 0.0 0.0 116.5466 -5.71155 -1.09691 46.6406 -13.4155 164.691 0.0 -107.446 0.0 -32.0284 14.0671 -155.557 0.0 0.0 0.0 0.0 0.0 0.0 0.455436 -15.4738 -27.3948 0.0 4.63837 0.0 -0.732888 -1.7488995 20.7366 0.0 -11.07681 0.0 7.88157 -13.8927 29.7882 0.0 3.8368 0.0 4.69543 2.6255999 -31.3207 0.0 -18.11455 0.0 
  -2.9502499389648436 1.5104499816894532 9.402890014648438 -142.404 70.6441 169.898 6.81871 -30.578 -1.17213 -3.1131 10.5271 0.544557 16.9762 36.6757 -11.8951 -59.9364 -70.2501 -51.6281 -116.9131 -3.49159 6.755 -44.6018 -7.12725 -164.62 0.0 -100.994 0.0 43.2826 1.14214 136.664 0.0 0.0 0.0 0.0 0.0 0.0 116.5501 -5.73486 -1.09225 46.6002 -13.4162 164.676 0.0 -107.416 0.0 -32.0356 13.9686 -155.319 0.0 0.0 0.0 0.0 0.0 0.0 0.460187 -15.4621 -27.3867 0.0 4.63321 0.0 -0.744367 -1.7401009 20.7466 0.0 -11.08616 0.0 7.88347 -13.8837 29.7818 0.0 3.82937 0.0 4.69918 2.6471996 -31.3011 0.0 -18.11589 0.0 
  -2.9514700317382814 1.512530059814453 9.403170166015625 -142.38 70.6778 169.861 6.83247 -30.5699 -1.1665 -3.15241 10.5333 0.525694 16.9873 36.7231 -11.8894 -60.0126 -70.2598 -51.6689 -116.9212 -3.51463 6.77323 -44.5904 -7.07925 -164.614 0.0 -101.003 0.0 43.3033 1.09585 136.242 0.0 0.0 0.0 0.0 0.0 0.0 116.565796 -5.72942 -1.11826 46.5639 -13.4108 164.702 0.0 -107.403 0.0 -32.0917 13.8867 -155.138 0.0 0.0 0.0 0.0 0.0 0.0 0.463078 -15.4453 -27.3666 0.0 4.64591 0.0 -0.640296 -1.6655998 20.7825 0.0 -11.20854 0.0 7.88983 -13.8662 29.7619 0.0 3.82993 0.0 4.67451 2.6855001 -31.2871 0.0 -18.11165 0.0 
  -2.95364013671875 1.5154600524902344 9.40364990234375 -142.377 70.7254 169.834 6.79534 -30.5656 -1.19892 -3.10963 10.5724 0.54523 16.9361 36.7271 -11.8795 -60.084 -70.2219 -51.7585 -116.9285 -3.50319 6.74022 -44.6308 -7.00934 -164.463 0.0 -100.887 0.0 43.0654 0.792873 136.265 0.0 0.0 0.0 0.0 0.0 0.0 116.5427 -5.74143 -1.11023 46.563 -13.4149 164.788 0.0 -107.415 0.0 -32.3384 13.8364 -155.186 0.0 0.0 0.0 0.0 0.0 0.0 0.463439 -15.4241 -27.3683 0.0 4.66032 0.0 -0.757048 -1.7206993 20.7591 0.0 -11.10004 0.0 7.89371 -13.8464 29.784 0.0 3.83687 0.0 4.68889 2.7055998 -31.2891 0.0 -18.11871 0.0 
  -2.9556100463867185 1.5178199768066407 9.403900146484375 -142.361 70.7559 169.799 6.77671 -30.5815 -1.21561 -3.12781 10.6206 0.556433 16.9734 36.7589 -11.8831 -60.1085 -70.2511 -51.7794 -116.9419 -3.49659 6.72733 -44.6445 -7.05936 -164.644 0.0 -101.067 0.0 43.4477 1.13419 136.266 0.0 0.0 0.0 0.0 0.0 0.0 116.5525 -5.72518 -1.10919 46.5534 -13.4285 164.838 0.0 -107.409 0.0 -32.3604 13.6792 -155.126 0.0 0.0 0.0 0.0 0.0 0.0 0.473547 -15.4054 -27.3898 0.0 4.65194 0.0 -0.766583 -1.7105007 20.7962 0.0 -11.09197 0.0 7.90494 -13.8366 29.8572 0.0 3.8436 0.0 4.7013 2.7184 -31.3398 0.0 -18.10338 0.0 
  -2.9577899169921875 1.52031005859375 9.40416015625 -142.347 70.7739 169.781 6.76692 -30.5815 -1.22704 -3.14322 10.6253 0.55455 16.9659 36.7823 -11.8616 -60.1295 -70.258 -51.8139 -116.939804 -3.51469 6.71497 -44.6618 -7.04529 -164.659 0.0 -101.097 0.0 43.5137 1.15694 136.358 0.0 0.0 0.0 0.0 0.0 0.0 116.5558 -5.72196 -1.10709 46.5834 -13.4639 164.903 0.0 -107.411 0.0 -32.4493 13.5917 -154.912 0.0 0.0 0.0 0.0 0.0 0.0 0.480331 -15.4063 -27.4195 0.0 4.65246 0.0 -0.806886 -1.7098007 20.8174 0.0 -11.0984 0.0 7.91512 -13.8389 29.897 0.0 3.84663 0.0 4.7098 2.7343998 -31.3764 0.0 -18.11001 0.0 
  -2.9602301025390627 1.5230499267578126 9.404539794921876 -142.329 70.799 169.758 6.75115 -30.5657 -1.24148 -3.13455 10.6116 0.555466 16.9436 36.8329 -11.8354 -60.2262 -70.2537 -51.9302 -116.9478 -3.5302 6.70605 -44.6357 -7.0033 -164.499 0.0 -101.06 0.0 43.0738 1.01472 136.892 0.0 0.0 0.0 0.0 0.0 0.0 116.5586 -5.73608 -1.09069 46.5944 -13.501 164.924 0.0 -107.444 0.0 -32.4053 13.6541 -155.073 0.0 0.0 0.0 0.0 0.0 0.0 0.483398 -15.4111 -27.4046 0.0 4.6726 0.0 -0.789111 -1.6874008 20.8183 0.0 -11.0957 0.0 7.92574 -13.8396 29.9066 0.0 3.85463 0.0 4.71939 2.7561998 -31.3803 0.0 -18.11016 0.0 
  -2.96260009765625 1.525590057373047 9.404810180664063 -142.29 70.8403 169.717 6.72895 -30.543 -1.26403 -3.12416 10.5997 0.554014 16.9112 36.8945 -11.7865 -60.3112 -70.254 -52.0319 -116.959 -3.53937 6.69227 -44.6653 -6.98093 -164.508 0.0 -101.028 0.0 43.1878 0.863988 136.613 0.0 0.0 0.0 0.0 0.0 0.0 116.5694 -5.73371 -1.11677 46.5922 -13.5157 164.965 0.0 -107.476 0.0 -32.3909 13.6742 -154.992 0.0 0.0 0.0 0.0 0.0 0.0 0.49256 -15.3919 -27.4311 0.0 4.68024 0.0 -0.815244 -1.6940994 20.8429 0.0 -11.07275 0.0 7.93861 -13.8214 29.8979 0.0 3.86031 0.0 4.72504 2.7774 -31.3709 0.0 -18.11323 0.0 
